# xmcd
#
# Track frame offsets:
#	150
#	14181
#	29385
#	45898
#	61465
#	76509
#	91080
#	107350
#	121845
#	134634
#
# Disc length: 2033 seconds
#
# Revision: 0
# Processed by: cddbd v1.5.2PL0 Copyright (c) Steve Scherf et al.
# Submitted via: dBpowerAMP V4.0
#
DISCID=7207ef0a
DTITLE=Various Artist - Daffodils
DYEAR=1900
DGENRE=Bluegrass
TTITLE0=Blue Jeans and T-Shirt
TTITLE1=Rocky Top
TTITLE2=Daffodils
TTITLE3=Drowsy Maggie/Growling Old Man and Woman
TTITLE4=Cast My Hart
TTITLE5=Old Joe Clark
TTITLE6=Homeward Bound
TTITLE7=Point of View
TTITLE8=Mozart's Fiddle
TTITLE9=ShaeLaurel - Seminole Wind
EXTD=
EXTT0=
EXTT1=
EXTT2=
EXTT3=
EXTT4=
EXTT5=
EXTT6=
EXTT7=
EXTT8=
EXTT9=
PLAYORDER=
